<svg xmlns="http://www.w3.org/2000/svg" viewBox="0 0 64 64" role="img" aria-label="Smart Parking favicon">
  <defs>
    <linearGradient id="bg" x1="10" x2="54" y1="8" y2="56" gradientUnits="userSpaceOnUse">
      <stop offset="0" stop-color="#3949AB"/>
      <stop offset="1" stop-color="#1A237E"/>
    </linearGradient>
    <linearGradient id="accent" x1="20" x2="44" y1="20" y2="44" gradientUnits="userSpaceOnUse">
      <stop offset="0" stop-color="#FB8C00"/>
      <stop offset="1" stop-color="#F4511E"/>
    </linearGradient>
  </defs>
  <rect width="64" height="64" rx="18" fill="url(#bg)"/>
  <circle cx="32" cy="32" r="18" fill="none" stroke="#FFFFFF" stroke-width="5"/>
  <path fill="#FFFFFF" d="M27 20h7.5c5.247 0 9.5 4.03 9.5 9s-4.253 9-9.5 9H32v8h-5zm5 13h2.5c2.485 0 4.5-1.791 4.5-4s-2.015-4-4.5-4H32z"/>
  <path fill="url(#accent)" d="M45.5 42.5a6.5 6.5 0 1 1-13 0 6.5 6.5 0 0 1 13 0"/>
</svg>
